<?xml version="1.0" encoding="iso-8859-1"?>
<!-- Uploaded to: SVG Repo, www.svgrepo.com, Generator: SVG Repo Mixer Tools -->
<svg fill="#000000" height="800px" width="800px" version="1.1" id="Layer_1" xmlns="http://www.w3.org/2000/svg" xmlns:xlink="http://www.w3.org/1999/xlink" 
	 viewBox="0 0 512 512" xml:space="preserve">
<g>
	<g>
		<path d="M483.556,227.556v-85.333h-28.444v-28.444H384v28.444h-14.222l-28.444-71.111H170.667l-28.444,71.111h-16.66
			c-5.858-16.569-21.653-28.444-40.229-28.444c-18.576,0-34.371,11.876-40.229,28.444h-16.66v85.333H0v42.667h28.444v170.667
			h168.868C156.144,419.611,128,376.649,128,327.111c0-70.693,57.307-128,128-128s128,57.307,128,128
			c0,49.537-28.144,92.5-69.312,113.778h168.868V270.222H512v-42.667H483.556z M188.176,142.222l11.378-28.444h112.895
			l11.378,28.444H188.176z M426.667,298.667c-7.855,0-14.222-6.367-14.222-14.222s6.367-14.222,14.222-14.222
			c7.855,0,14.222,6.367,14.222,14.222S434.522,298.667,426.667,298.667z"/>
	</g>
</g>
<g>
	<g>
		<circle cx="256" cy="327.111" r="85.333"/>
	</g>
</g>
</svg>